<svg width="205" height="83" viewBox="0 0 205 83" fill="none" xmlns="http://www.w3.org/2000/svg">
<path d="M202.717 0C203.718 5.67275e-05 204.529 0.812219 204.529 1.81348V15.7812C204.529 16.0711 204.459 16.3439 204.338 16.5869C202.458 7.6262 161.033 0.412093 109.37 0.0175781V0L202.717 0Z" fill="#FDB930"/>
<path d="M82.1211 31.8057C82.1648 33.9916 83.9479 35.7507 86.1426 35.751V35.749H100.064V35.7529H105.38C111.187 35.7529 115.895 40.4602 115.896 46.2676V55.5938C115.895 61.4012 111.187 66.1094 105.38 66.1094H100.056V66.1064H67.5801V54.9551H96.0381V54.9561C98.2039 54.9558 99.9691 53.242 100.056 51.0947V50.7637C99.9686 48.6185 98.2061 46.9051 96.043 46.9023V46.9014H82.1211V31.8057ZM82.1182 46.9053H75.2334C70.1942 46.127 66.336 41.7708 66.3359 36.5137V27.0645C66.3359 21.257 71.0441 16.5489 76.8516 16.5488H82.1182V46.9053ZM114.605 27.6953H86.1426V27.6963C83.9484 27.6965 82.1656 29.4554 82.1211 31.6406V16.5439H114.605V27.6953Z" fill="white"/>
<path d="M26.8555 16.5576H59.3379V27.709H30.876V27.7061C28.6875 27.7063 26.9088 29.4554 26.8555 31.6328V31.833C26.9088 34.0101 28.6869 35.758 30.875 35.7588V35.7627H44.7969V66.1191H12.3125V54.9678H40.7754V54.959C42.9955 54.9577 44.7949 53.1558 44.7949 50.9326C44.7947 48.709 42.9943 46.9065 40.7734 46.9062V46.9141H26.8535V46.9072H19.6416C14.787 46.1465 11.0734 41.946 11.0732 36.8779V26.7031C11.0733 21.096 15.6185 16.5509 21.2256 16.5508H26.8555V16.5576ZM50.4854 35.7549C56.0924 35.7551 60.6377 40.3001 60.6377 45.9072V55.958C60.6375 61.565 56.0924 66.1112 50.4854 66.1113H44.7979V35.7549H50.4854Z" fill="white"/>
<path d="M102.222 7.41504C158.677 7.41505 204.443 13.1518 204.443 20.2285C204.443 25.1958 181.894 29.499 148.928 31.625V51.0449C153.098 51.3127 157.136 51.6165 161.011 51.958C181.526 53.766 196.024 56.4559 201.745 59.5166C207.466 62.5773 204.011 65.7954 192.039 68.5576C180.066 71.3198 160.41 73.4342 136.812 74.498C113.213 75.5619 87.3176 75.5008 64.0527 74.3271C40.7881 73.1535 21.7772 70.9482 10.6367 68.1318H21.7783C39.1142 71.0511 66.8895 72.9434 98.1973 72.9434C130.584 72.9434 159.191 70.9173 176.371 67.8252V67.8047H140.971V67.8057H133.039C128.068 67.1469 124.232 62.8948 124.232 57.7441V24.7129C124.233 19.426 128.274 15.0839 133.437 14.6055H138.615V14.6016H174.954C157.871 12.0178 130.46 10.3418 99.5586 10.3418C60.1914 10.3418 26.4906 13.062 12.5889 16.915C5.6971 17.8365 1.06358 19.5498 1.06348 21.5146C1.0635 21.7738 1.14504 22.0281 1.30078 22.2773C0.444954 21.61 3.89251e-05 20.9261 0 20.2285C0.000460636 13.1518 45.7664 7.41504 102.222 7.41504ZM148.928 54.2373H174.763C167.729 53.1291 158.962 52.1968 148.928 51.4824V54.2373ZM139.488 50.8945C140.778 52.903 143.03 54.2344 145.594 54.2344H148.926V51.4824C145.892 51.2664 142.741 51.07 139.488 50.8945ZM148.926 31.625C145.79 31.8272 142.561 32.0114 139.247 32.1729C138.671 33.2129 138.342 34.4093 138.342 35.6826V46.9824C138.342 48.2592 138.673 49.4589 139.252 50.501C142.542 50.6612 145.772 50.8414 148.926 51.0439V31.625ZM145.594 28.4307C142.949 28.4307 140.636 29.8465 139.369 31.9609C142.708 31.7928 145.902 31.5992 148.926 31.3799V28.4307H145.594ZM148.928 31.3799C159.127 30.6399 167.39 29.6238 172.753 28.4336H148.928V31.3799Z" fill="white"/>
<path d="M0.192383 66.1475C2.07062 75.1084 43.4961 82.3233 95.1602 82.7178V82.7354H1.81348C0.812232 82.7353 0.000976562 81.9231 0.000976562 80.9219V66.9531C0.00104991 66.6633 0.0713665 66.3904 0.192383 66.1475ZM0.256836 68.665C0.090745 69.0784 0.00393277 69.4962 0.00390625 69.917C0.00541173 74.9809 12.2359 79.5386 31.7822 82.7334H50.915C22.0976 79.929 2.16547 74.7127 0.256836 68.665Z" fill="#FDB930"/>
</svg>
